<mxfile host="app.diagrams.net" modified="2023-07-17T06:56:29.598Z" agent="Mozilla/5.0 (Windows NT 10.0; Win64; x64) AppleWebKit/537.36 (KHTML, like Gecko) Chrome/114.0.0.0 Safari/537.36" etag="oxleA7PDwb04wlfFsoFH" version="21.6.2" type="github">
  <diagram name="Page-1" id="ZoImVnbAIIBRqT9PwuNn">
    <mxGraphModel dx="522" dy="583" grid="1" gridSize="10" guides="1" tooltips="1" connect="1" arrows="1" fold="1" page="1" pageScale="1" pageWidth="850" pageHeight="1100" math="0" shadow="0">
      <root>
        <mxCell id="0" />
        <mxCell id="1" parent="0" />
        <mxCell id="EVSfojGxGcQbr0xOnRWz-4" value="" style="edgeStyle=orthogonalEdgeStyle;rounded=0;orthogonalLoop=1;jettySize=auto;html=1;" edge="1" parent="1" source="EVSfojGxGcQbr0xOnRWz-2" target="EVSfojGxGcQbr0xOnRWz-3">
          <mxGeometry relative="1" as="geometry" />
        </mxCell>
        <mxCell id="EVSfojGxGcQbr0xOnRWz-2" value="material" style="rounded=1;whiteSpace=wrap;html=1;" vertex="1" parent="1">
          <mxGeometry x="270" y="90" width="120" height="60" as="geometry" />
        </mxCell>
        <mxCell id="EVSfojGxGcQbr0xOnRWz-6" value="" style="edgeStyle=orthogonalEdgeStyle;rounded=0;orthogonalLoop=1;jettySize=auto;html=1;" edge="1" parent="1" source="EVSfojGxGcQbr0xOnRWz-3" target="EVSfojGxGcQbr0xOnRWz-5">
          <mxGeometry relative="1" as="geometry" />
        </mxCell>
        <mxCell id="EVSfojGxGcQbr0xOnRWz-3" value="scaffold" style="whiteSpace=wrap;html=1;rounded=1;" vertex="1" parent="1">
          <mxGeometry x="270" y="230" width="120" height="60" as="geometry" />
        </mxCell>
        <mxCell id="EVSfojGxGcQbr0xOnRWz-16" value="" style="edgeStyle=orthogonalEdgeStyle;rounded=0;orthogonalLoop=1;jettySize=auto;html=1;" edge="1" parent="1" source="EVSfojGxGcQbr0xOnRWz-5" target="EVSfojGxGcQbr0xOnRWz-15">
          <mxGeometry relative="1" as="geometry" />
        </mxCell>
        <mxCell id="EVSfojGxGcQbr0xOnRWz-5" value="body" style="whiteSpace=wrap;html=1;rounded=1;" vertex="1" parent="1">
          <mxGeometry x="270" y="370" width="120" height="60" as="geometry" />
        </mxCell>
        <mxCell id="EVSfojGxGcQbr0xOnRWz-10" value="" style="edgeStyle=orthogonalEdgeStyle;rounded=0;orthogonalLoop=1;jettySize=auto;html=1;" edge="1" parent="1" source="EVSfojGxGcQbr0xOnRWz-7" target="EVSfojGxGcQbr0xOnRWz-9">
          <mxGeometry relative="1" as="geometry" />
        </mxCell>
        <mxCell id="EVSfojGxGcQbr0xOnRWz-27" value="" style="edgeStyle=orthogonalEdgeStyle;rounded=0;orthogonalLoop=1;jettySize=auto;html=1;" edge="1" parent="1" source="EVSfojGxGcQbr0xOnRWz-7" target="EVSfojGxGcQbr0xOnRWz-24">
          <mxGeometry relative="1" as="geometry" />
        </mxCell>
        <mxCell id="EVSfojGxGcQbr0xOnRWz-42" value="" style="edgeStyle=orthogonalEdgeStyle;rounded=0;orthogonalLoop=1;jettySize=auto;html=1;" edge="1" parent="1" source="EVSfojGxGcQbr0xOnRWz-7" target="EVSfojGxGcQbr0xOnRWz-41">
          <mxGeometry relative="1" as="geometry" />
        </mxCell>
        <mxCell id="EVSfojGxGcQbr0xOnRWz-7" value="expanded" style="whiteSpace=wrap;html=1;rounded=1;" vertex="1" parent="1">
          <mxGeometry x="220" y="860" width="120" height="60" as="geometry" />
        </mxCell>
        <mxCell id="EVSfojGxGcQbr0xOnRWz-29" value="" style="edgeStyle=orthogonalEdgeStyle;rounded=0;orthogonalLoop=1;jettySize=auto;html=1;" edge="1" parent="1" source="EVSfojGxGcQbr0xOnRWz-9" target="EVSfojGxGcQbr0xOnRWz-28">
          <mxGeometry relative="1" as="geometry" />
        </mxCell>
        <mxCell id="EVSfojGxGcQbr0xOnRWz-9" value="TextButton" style="whiteSpace=wrap;html=1;rounded=1;" vertex="1" parent="1">
          <mxGeometry x="70" y="1000" width="120" height="60" as="geometry" />
        </mxCell>
        <mxCell id="EVSfojGxGcQbr0xOnRWz-14" value="" style="edgeStyle=orthogonalEdgeStyle;rounded=0;orthogonalLoop=1;jettySize=auto;html=1;" edge="1" parent="1" source="EVSfojGxGcQbr0xOnRWz-11" target="EVSfojGxGcQbr0xOnRWz-13">
          <mxGeometry relative="1" as="geometry" />
        </mxCell>
        <mxCell id="EVSfojGxGcQbr0xOnRWz-26" value="" style="edgeStyle=orthogonalEdgeStyle;rounded=0;orthogonalLoop=1;jettySize=auto;html=1;" edge="1" parent="1" source="EVSfojGxGcQbr0xOnRWz-11" target="EVSfojGxGcQbr0xOnRWz-24">
          <mxGeometry relative="1" as="geometry" />
        </mxCell>
        <mxCell id="EVSfojGxGcQbr0xOnRWz-11" value="expanded" style="whiteSpace=wrap;html=1;rounded=1;" vertex="1" parent="1">
          <mxGeometry x="660" y="850" width="120" height="60" as="geometry" />
        </mxCell>
        <mxCell id="EVSfojGxGcQbr0xOnRWz-33" value="" style="edgeStyle=orthogonalEdgeStyle;rounded=0;orthogonalLoop=1;jettySize=auto;html=1;" edge="1" parent="1" source="EVSfojGxGcQbr0xOnRWz-13" target="EVSfojGxGcQbr0xOnRWz-32">
          <mxGeometry relative="1" as="geometry" />
        </mxCell>
        <mxCell id="EVSfojGxGcQbr0xOnRWz-13" value="textbutton" style="whiteSpace=wrap;html=1;rounded=1;" vertex="1" parent="1">
          <mxGeometry x="680" y="1030" width="120" height="60" as="geometry" />
        </mxCell>
        <mxCell id="EVSfojGxGcQbr0xOnRWz-19" value="" style="edgeStyle=orthogonalEdgeStyle;rounded=0;orthogonalLoop=1;jettySize=auto;html=1;" edge="1" parent="1" source="EVSfojGxGcQbr0xOnRWz-15" target="EVSfojGxGcQbr0xOnRWz-18">
          <mxGeometry relative="1" as="geometry" />
        </mxCell>
        <mxCell id="EVSfojGxGcQbr0xOnRWz-15" value="dice()" style="whiteSpace=wrap;html=1;rounded=1;" vertex="1" parent="1">
          <mxGeometry x="270" y="520" width="120" height="60" as="geometry" />
        </mxCell>
        <mxCell id="EVSfojGxGcQbr0xOnRWz-21" value="" style="edgeStyle=orthogonalEdgeStyle;rounded=0;orthogonalLoop=1;jettySize=auto;html=1;" edge="1" parent="1" source="EVSfojGxGcQbr0xOnRWz-18" target="EVSfojGxGcQbr0xOnRWz-20">
          <mxGeometry relative="1" as="geometry" />
        </mxCell>
        <mxCell id="EVSfojGxGcQbr0xOnRWz-25" value="" style="edgeStyle=orthogonalEdgeStyle;rounded=0;orthogonalLoop=1;jettySize=auto;html=1;" edge="1" parent="1" source="EVSfojGxGcQbr0xOnRWz-18" target="EVSfojGxGcQbr0xOnRWz-24">
          <mxGeometry relative="1" as="geometry" />
        </mxCell>
        <mxCell id="EVSfojGxGcQbr0xOnRWz-18" value="stateful widgit" style="whiteSpace=wrap;html=1;rounded=1;" vertex="1" parent="1">
          <mxGeometry x="270" y="660" width="120" height="60" as="geometry" />
        </mxCell>
        <mxCell id="EVSfojGxGcQbr0xOnRWz-20" value="declare variable and initilize value&lt;br&gt;&lt;br&gt;like int leftdice =5" style="whiteSpace=wrap;html=1;rounded=1;" vertex="1" parent="1">
          <mxGeometry x="70" y="670" width="120" height="60" as="geometry" />
        </mxCell>
        <mxCell id="EVSfojGxGcQbr0xOnRWz-24" value="build" style="whiteSpace=wrap;html=1;rounded=1;" vertex="1" parent="1">
          <mxGeometry x="450" y="860" width="120" height="60" as="geometry" />
        </mxCell>
        <mxCell id="EVSfojGxGcQbr0xOnRWz-37" value="" style="edgeStyle=orthogonalEdgeStyle;rounded=0;orthogonalLoop=1;jettySize=auto;html=1;" edge="1" parent="1" source="EVSfojGxGcQbr0xOnRWz-28" target="EVSfojGxGcQbr0xOnRWz-36">
          <mxGeometry relative="1" as="geometry" />
        </mxCell>
        <mxCell id="EVSfojGxGcQbr0xOnRWz-28" value="onpressed:&lt;br&gt;" style="whiteSpace=wrap;html=1;rounded=1;" vertex="1" parent="1">
          <mxGeometry x="70" y="1140" width="120" height="60" as="geometry" />
        </mxCell>
        <mxCell id="EVSfojGxGcQbr0xOnRWz-30" value="reinitialized varibale value like leftdice=6" style="whiteSpace=wrap;html=1;rounded=1;" vertex="1" parent="1">
          <mxGeometry x="70" y="1380" width="120" height="60" as="geometry" />
        </mxCell>
        <mxCell id="EVSfojGxGcQbr0xOnRWz-35" value="" style="edgeStyle=orthogonalEdgeStyle;rounded=0;orthogonalLoop=1;jettySize=auto;html=1;" edge="1" parent="1" source="EVSfojGxGcQbr0xOnRWz-32" target="EVSfojGxGcQbr0xOnRWz-34">
          <mxGeometry relative="1" as="geometry" />
        </mxCell>
        <mxCell id="EVSfojGxGcQbr0xOnRWz-32" value="onpressed:" style="whiteSpace=wrap;html=1;rounded=1;" vertex="1" parent="1">
          <mxGeometry x="680" y="1170" width="120" height="60" as="geometry" />
        </mxCell>
        <mxCell id="EVSfojGxGcQbr0xOnRWz-34" value="" style="whiteSpace=wrap;html=1;rounded=1;" vertex="1" parent="1">
          <mxGeometry x="680" y="1310" width="120" height="60" as="geometry" />
        </mxCell>
        <mxCell id="EVSfojGxGcQbr0xOnRWz-40" value="" style="edgeStyle=orthogonalEdgeStyle;rounded=0;orthogonalLoop=1;jettySize=auto;html=1;" edge="1" parent="1" source="EVSfojGxGcQbr0xOnRWz-36" target="EVSfojGxGcQbr0xOnRWz-30">
          <mxGeometry relative="1" as="geometry" />
        </mxCell>
        <mxCell id="EVSfojGxGcQbr0xOnRWz-36" value="setState" style="whiteSpace=wrap;html=1;rounded=1;" vertex="1" parent="1">
          <mxGeometry x="70" y="1280" width="120" height="60" as="geometry" />
        </mxCell>
        <mxCell id="EVSfojGxGcQbr0xOnRWz-44" value="" style="edgeStyle=orthogonalEdgeStyle;rounded=0;orthogonalLoop=1;jettySize=auto;html=1;" edge="1" parent="1" source="EVSfojGxGcQbr0xOnRWz-41" target="EVSfojGxGcQbr0xOnRWz-43">
          <mxGeometry relative="1" as="geometry" />
        </mxCell>
        <mxCell id="EVSfojGxGcQbr0xOnRWz-41" value="child" style="whiteSpace=wrap;html=1;rounded=1;" vertex="1" parent="1">
          <mxGeometry x="220" y="1000" width="120" height="60" as="geometry" />
        </mxCell>
        <mxCell id="EVSfojGxGcQbr0xOnRWz-43" value="image" style="whiteSpace=wrap;html=1;rounded=1;" vertex="1" parent="1">
          <mxGeometry x="220" y="1140" width="120" height="60" as="geometry" />
        </mxCell>
      </root>
    </mxGraphModel>
  </diagram>
</mxfile>
